<svg id="Layer_1" data-name="Layer 1" xmlns="http://www.w3.org/2000/svg" xmlns:xlink="http://www.w3.org/1999/xlink" viewBox="0 0 1080 1080"><defs><style>.cls-1{fill:none;}.cls-2{clip-path:url(#clip-path);}.cls-3{fill:#5bb318;}.cls-4{fill:#2b7a0b;}.cls-5{fill:#eae509;}.cls-6{fill:#333;}.cls-7{fill:#4d4d4d;}</style><clipPath id="clip-path"><path class="cls-1" d="M528.63,652.43q-57.54,0-106.92-19.19t-85.6-54A245.18,245.18,0,0,1,280,497.9q-19.89-46.51-19.89-101.23,0-55.41,19.89-101.59a246.38,246.38,0,0,1,56.13-81q36.22-34.8,85.25-54t107.27-19.18q57.55,0,106.57,18.82t84.89,53.64a248.19,248.19,0,0,1,55.77,81.34q19.89,46.54,19.89,101.95T775.86,498.62A248,248,0,0,1,720.09,580q-35.88,34.81-84.89,53.64T528.63,652.43Zm0-81q37.65,0,69.27-12.79a164.84,164.84,0,0,0,92-92.36q12.78-32,12.79-69.62,0-38.35-12.79-70a165.66,165.66,0,0,0-92-92q-31.62-12.78-69.27-12.78t-70,12.78a159.87,159.87,0,0,0-55.76,36.59A177.36,177.36,0,0,0,366,326.69q-13.51,31.62-13.5,70,0,37.66,13.5,69.62a176.14,176.14,0,0,0,36.94,55.77,159.73,159.73,0,0,0,55.76,36.59Q491,571.43,528.63,571.44ZM691.32,754.73a198.74,198.74,0,0,1-51.15-6.4,208.52,208.52,0,0,1-48.31-19.89q-24.17-13.5-49.73-36.23T486,636.79l98-24.86q19.88,26.3,38,41.92t35.53,22.73a90.73,90.73,0,0,0,34.45,7.1q49.72,0,86-40.49l41.92,51.86Q770.89,754.72,691.32,754.73Z"/></clipPath></defs><g class="cls-2"><circle class="cls-3" cx="819.91" cy="296.3" r="356.13"/><circle class="cls-4" cx="560.84" cy="698.05" r="356.13"/><circle class="cls-5" cx="312.92" cy="246.32" r="356.13"/></g><path class="cls-6" d="M195.9,880.46l20.84-47.21H229.9l20.9,47.21H236.91l-16.32-40.67h5.26l-16.32,40.67Zm11.4-9.24,3.44-9.78h23.07l3.44,9.78Z"/><path class="cls-6" d="M254,880.46v-50h12.82v50Z"/><path class="cls-6" d="M319.12,881.4a29.15,29.15,0,0,1-10.42-1.82,24.39,24.39,0,0,1-8.33-5.16,24.06,24.06,0,0,1-5.49-7.82,24.93,24.93,0,0,1,0-19.52,24.19,24.19,0,0,1,13.82-13,30.85,30.85,0,0,1,20.88,0,25.27,25.27,0,0,1,8.33,5.12A23.34,23.34,0,0,1,343.4,847a25.63,25.63,0,0,1,0,19.66,23.16,23.16,0,0,1-5.49,7.79,25.27,25.27,0,0,1-8.33,5.12A29.1,29.1,0,0,1,319.12,881.4Zm0-11.06a13.24,13.24,0,0,0,5-.94,11.56,11.56,0,0,0,4-2.73,12.79,12.79,0,0,0,2.7-4.28,16.12,16.12,0,0,0,0-11.07,12.79,12.79,0,0,0-2.7-4.28,11.56,11.56,0,0,0-4-2.73,13.9,13.9,0,0,0-10,0A12,12,0,0,0,310,847a12.2,12.2,0,0,0-2.7,4.28,16.77,16.77,0,0,0,0,11.07,12.2,12.2,0,0,0,2.7,4.28,12,12,0,0,0,4.08,2.73A13.19,13.19,0,0,0,319.12,870.34Zm15.45,21.52a24.63,24.63,0,0,1-5.7-.64,20,20,0,0,1-5.16-2.06,30.52,30.52,0,0,1-5.23-3.84q-2.73-2.43-6.1-6l14-3.5a32.33,32.33,0,0,0,3,3.94,8.37,8.37,0,0,0,2.67,2,6.94,6.94,0,0,0,2.8.57A9.8,9.8,0,0,0,342,879l5.8,7Q342.93,891.86,334.57,891.86Z"/><path class="cls-6" d="M367.14,881.07a17.74,17.74,0,0,1-8-1.76,12.43,12.43,0,0,1-5.53-5.49,20.22,20.22,0,0,1-2-9.55V843.84h12.81v18.34c0,2.84.53,4.87,1.59,6.11a5.59,5.59,0,0,0,4.48,1.85,7,7,0,0,0,3.48-.88,5.85,5.85,0,0,0,2.46-2.79,11.92,11.92,0,0,0,.88-4.89V843.84h12.81v36.62H378V870.14l2.36,2.9a13.29,13.29,0,0,1-5.5,6A15.55,15.55,0,0,1,367.14,881.07Z"/><path class="cls-6" d="M398.44,880.46V843.84h12.27v10.72l-1.89-3a12.35,12.35,0,0,1,5.3-6.21,17.31,17.31,0,0,1,8.8-2.09v11.6c-.59-.09-1.1-.14-1.55-.17l-1.35,0a9.31,9.31,0,0,0-6.34,2.12c-1.62,1.42-2.43,3.72-2.43,6.92v16.79Z"/><path class="cls-6" d="M437.49,881.07a16.85,16.85,0,0,1-7.39-1.49,10.69,10.69,0,0,1-4.65-4,10.55,10.55,0,0,1-1.59-5.67,10.15,10.15,0,0,1,1.72-5.87,10.68,10.68,0,0,1,5.33-3.81,27.41,27.41,0,0,1,9.21-1.31h8.63v6.74h-6.88c-2.07,0-3.52.32-4.35,1a3.18,3.18,0,0,0-1.25,2.69,3.31,3.31,0,0,0,1.28,2.67,5.4,5.4,0,0,0,3.51,1,7.3,7.3,0,0,0,3.88-1,5.87,5.87,0,0,0,2.46-3.2l1.75,4.72a9.48,9.48,0,0,1-3.94,5.7A13.9,13.9,0,0,1,437.49,881.07Zm10.79-.61v-6.81L447.4,872V859.42a6,6,0,0,0-1.85-4.69q-1.86-1.65-5.91-1.65a17.61,17.61,0,0,0-5.36.87,16.84,16.84,0,0,0-4.62,2.23l-4.25-8.63a25.34,25.34,0,0,1,7.46-3.17,33.58,33.58,0,0,1,8.66-1.15c5.94,0,10.53,1.37,13.8,4.12s4.88,7,4.88,12.81v20.3Z"/><path class="cls-6" d="M492.12,843.23A16.76,16.76,0,0,1,499.8,845a12.74,12.74,0,0,1,5.43,5.33,18.89,18.89,0,0,1,2,9.24v20.91H494.34V861.64q0-3.9-1.58-5.7a5.45,5.45,0,0,0-4.29-1.78,7.76,7.76,0,0,0-3.77.91,6.17,6.17,0,0,0-2.63,2.8,11.2,11.2,0,0,0-.95,5v17.6H468.31V843.84h12.27v10.45l-2.43-3a14.57,14.57,0,0,1,5.74-6A16.43,16.43,0,0,1,492.12,843.23Z"/><path class="cls-6" d="M535.55,880.46V833.25H548.9v47.21Z"/><path class="cls-6" d="M581.54,843.23a16.77,16.77,0,0,1,7.69,1.75,12.74,12.74,0,0,1,5.43,5.33,18.89,18.89,0,0,1,2,9.24v20.91H583.77V861.64q0-3.9-1.58-5.7a5.45,5.45,0,0,0-4.29-1.78,7.76,7.76,0,0,0-3.77.91,6.17,6.17,0,0,0-2.63,2.8,11.2,11.2,0,0,0-1,5v17.6H557.74V843.84H570v10.45l-2.43-3a14.57,14.57,0,0,1,5.74-6A16.42,16.42,0,0,1,581.54,843.23Z"/><path class="cls-6" d="M621.07,881.07a18,18,0,0,1-9-2.33,17,17,0,0,1-6.51-6.54,22.33,22.33,0,0,1,0-20.1,17,17,0,0,1,6.51-6.54,18,18,0,0,1,9-2.33,14.74,14.74,0,0,1,7.95,2.06,12.62,12.62,0,0,1,5,6.24,28.86,28.86,0,0,1,1.68,10.65,30.62,30.62,0,0,1-1.58,10.66,12,12,0,0,1-4.86,6.2A15.3,15.3,0,0,1,621.07,881.07Zm2.69-10.19a7.44,7.44,0,0,0,3.88-1,7,7,0,0,0,2.73-3,10.17,10.17,0,0,0,1-4.69,10,10,0,0,0-1-4.79,7.28,7.28,0,0,0-2.73-2.9,7.53,7.53,0,0,0-3.88-1,7.68,7.68,0,0,0-3.94,1,7.28,7.28,0,0,0-2.73,2.9,10,10,0,0,0-1,4.79,10.17,10.17,0,0,0,1,4.69,7,7,0,0,0,2.73,3A7.58,7.58,0,0,0,623.76,870.88Zm8,9.58v-6.27l.07-12.07L631.18,850V830.42H644v50Z"/><path class="cls-6" d="M670.57,881.07a22.73,22.73,0,0,1-10.66-2.43,18.51,18.51,0,0,1-7.31-6.71,19.25,19.25,0,0,1,0-19.56,18.51,18.51,0,0,1,7.31-6.71,24.66,24.66,0,0,1,21.35,0,18.43,18.43,0,0,1,7.35,6.71,19.25,19.25,0,0,1,0,19.56,18.43,18.43,0,0,1-7.35,6.71A22.88,22.88,0,0,1,670.57,881.07Zm0-10.19a7.46,7.46,0,0,0,3.88-1,7.19,7.19,0,0,0,2.76-3,10.06,10.06,0,0,0,1-4.75,9.65,9.65,0,0,0-1-4.73,7.53,7.53,0,0,0-13.28,0,9.65,9.65,0,0,0-1,4.73,10.06,10.06,0,0,0,1,4.75,7.26,7.26,0,0,0,2.76,3A7.46,7.46,0,0,0,670.57,870.88Z"/><path class="cls-6" d="M721,843.23a16.8,16.8,0,0,1,7.69,1.75,12.85,12.85,0,0,1,5.43,5.33,19,19,0,0,1,2,9.24v20.91H723.18V861.64q0-3.9-1.59-5.7a5.43,5.43,0,0,0-4.28-1.78,7.8,7.8,0,0,0-3.78.91,6.23,6.23,0,0,0-2.63,2.8,11.21,11.21,0,0,0-.94,5v17.6H697.14V843.84h12.28v10.45l-2.43-3a14.48,14.48,0,0,1,5.73-6A16.46,16.46,0,0,1,721,843.23Z"/><path class="cls-6" d="M763.78,881.07a24.75,24.75,0,0,1-11.37-2.46,18.51,18.51,0,0,1-7.48-6.75,17.9,17.9,0,0,1-2.67-9.68,18.58,18.58,0,0,1,2.6-9.81,18.21,18.21,0,0,1,7.15-6.71,21.61,21.61,0,0,1,10.35-2.43,21.15,21.15,0,0,1,9.81,2.26,17.91,17.91,0,0,1,7.09,6.48,18.9,18.9,0,0,1,2.66,10.28c0,.45,0,1-.07,1.55s-.09,1.13-.13,1.62H752.78v-6.74h22.13l-4.86,1.88a8.62,8.62,0,0,0-.91-4.28,7.14,7.14,0,0,0-2.66-2.86,7.58,7.58,0,0,0-4-1,8,8,0,0,0-4.12,1,6.52,6.52,0,0,0-2.66,2.86,9.74,9.74,0,0,0-.91,4.35v2a9.25,9.25,0,0,0,1.11,4.65,7.32,7.32,0,0,0,3.2,3,11,11,0,0,0,5,1,12.23,12.23,0,0,0,4.66-.78,13.7,13.7,0,0,0,3.77-2.39l6.68,7.08a16.74,16.74,0,0,1-6.41,4.35A24.53,24.53,0,0,1,763.78,881.07Z"/><path class="cls-6" d="M801.14,881.07a38,38,0,0,1-9.07-1.08,25.88,25.88,0,0,1-7.12-2.7l3.78-8.77a24.8,24.8,0,0,0,6.07,2.5,25.37,25.37,0,0,0,6.75.94,9.8,9.8,0,0,0,4.48-.71,2.15,2.15,0,0,0,1.25-1.92,1.69,1.69,0,0,0-1.15-1.55A10.12,10.12,0,0,0,803,867l-4.22-.54a37.22,37.22,0,0,1-4.62-1,16.93,16.93,0,0,1-4.28-1.79,8.5,8.5,0,0,1-3.07-3.17,10.29,10.29,0,0,1-1.14-5.12,10.1,10.1,0,0,1,2-6.24,13.91,13.91,0,0,1,6-4.35,25.69,25.69,0,0,1,9.74-1.62,38.68,38.68,0,0,1,7.79.81,22.49,22.49,0,0,1,6.65,2.36l-3.85,8.77A17,17,0,0,0,808.7,853a25.9,25.9,0,0,0-5.06-.54,10.9,10.9,0,0,0-4.62.71c-.93.47-1.39,1.07-1.39,1.79a1.8,1.8,0,0,0,1.22,1.65,12,12,0,0,0,3.1.88c1.26.2,2.66.4,4.22.6a38.88,38.88,0,0,1,4.62.91A15.34,15.34,0,0,1,815,860.8,9.23,9.23,0,0,1,818,864a10.11,10.11,0,0,1,1.18,5.16,9.77,9.77,0,0,1-2,6,13.71,13.71,0,0,1-6.07,4.32A26.91,26.91,0,0,1,801.14,881.07Z"/><path class="cls-6" d="M831.15,839.86a8.07,8.07,0,0,1-5.7-2,6.34,6.34,0,0,1-2.12-4.85,6.27,6.27,0,0,1,2.12-4.83,8.19,8.19,0,0,1,5.7-1.92,8.52,8.52,0,0,1,5.67,1.82,5.83,5.83,0,0,1,2.16,4.66,6.7,6.7,0,0,1-2.13,5.06A7.94,7.94,0,0,1,831.15,839.86Zm-6.4,40.6V843.84h12.81v36.62Z"/><path class="cls-6" d="M857.39,881.07a16.85,16.85,0,0,1-7.39-1.49,10.81,10.81,0,0,1-4.65-4,10.54,10.54,0,0,1-1.58-5.67,10.14,10.14,0,0,1,1.71-5.87,10.72,10.72,0,0,1,5.33-3.81,27.5,27.5,0,0,1,9.21-1.31h8.63v6.74h-6.88c-2.07,0-3.52.32-4.35,1a3.18,3.18,0,0,0-1.25,2.69,3.3,3.3,0,0,0,1.29,2.67,5.35,5.35,0,0,0,3.5,1,7.3,7.3,0,0,0,3.88-1,5.78,5.78,0,0,0,2.46-3.2l1.76,4.72a9.5,9.5,0,0,1-3.95,5.7A13.88,13.88,0,0,1,857.39,881.07Zm10.79-.61v-6.81L867.3,872V859.42a6,6,0,0,0-1.85-4.69q-1.86-1.65-5.9-1.65a17.56,17.56,0,0,0-5.36.87,16.56,16.56,0,0,0-4.62,2.23l-4.25-8.63a25.17,25.17,0,0,1,7.45-3.17,33.66,33.66,0,0,1,8.67-1.15q8.89,0,13.79,4.12t4.89,12.81v20.3Z"/><path class="cls-7" d="M289.94,930.51a13.29,13.29,0,0,1-4.95-.9,11.83,11.83,0,0,1-3.93-2.52,11.63,11.63,0,0,1-2.59-3.83,12.9,12.9,0,0,1,0-9.62,11.43,11.43,0,0,1,2.61-3.83,11.75,11.75,0,0,1,3.94-2.53,14.16,14.16,0,0,1,9.8,0,9.83,9.83,0,0,1,3.83,2.59l-1.6,1.59a8.81,8.81,0,0,0-3.22-2.15,10.71,10.71,0,0,0-3.79-.66,10.58,10.58,0,0,0-4,.73,9.36,9.36,0,0,0-3.18,2.07,9.65,9.65,0,0,0-2.12,3.11,10.46,10.46,0,0,0,0,7.83,9.59,9.59,0,0,0,5.3,5.19,10.77,10.77,0,0,0,4,.72,10.49,10.49,0,0,0,3.79-.67,9,9,0,0,0,3.22-2.17l1.6,1.59a10,10,0,0,1-3.83,2.61A13.34,13.34,0,0,1,289.94,930.51Z"/><path class="cls-7" d="M303.49,930.31V912.52h2.3v4.84l-.23-.84a5.81,5.81,0,0,1,2.5-3.1,8.27,8.27,0,0,1,4.38-1.07v2.34l-.28,0-.27,0a5.72,5.72,0,0,0-4.4,1.71,6.92,6.92,0,0,0-1.59,4.87v9.08Z"/><path class="cls-7" d="M324.19,930.48a9.87,9.87,0,0,1-4.88-1.17,8.46,8.46,0,0,1-3.28-3.22,9.21,9.21,0,0,1-1.19-4.69,9.4,9.4,0,0,1,1.14-4.68,8.32,8.32,0,0,1,3.11-3.2,8.63,8.63,0,0,1,4.46-1.17,8.77,8.77,0,0,1,4.46,1.13,8.1,8.1,0,0,1,3.06,3.19,9.67,9.67,0,0,1,1.12,4.73c0,.11,0,.23,0,.35s0,.26,0,.39H316.67v-1.79h14.2l-.95.71a7,7,0,0,0-.83-3.44,6.09,6.09,0,0,0-2.25-2.36,6.37,6.37,0,0,0-3.29-.84,6.47,6.47,0,0,0-3.29.84,6,6,0,0,0-2.27,2.37,7.35,7.35,0,0,0-.81,3.5v.37a7,7,0,0,0,.9,3.57,6.3,6.3,0,0,0,2.5,2.41,7.75,7.75,0,0,0,3.68.86,7.93,7.93,0,0,0,3-.57,6.31,6.31,0,0,0,2.43-1.77l1.35,1.56a7.68,7.68,0,0,1-3,2.17A10,10,0,0,1,324.19,930.48Z"/><path class="cls-7" d="M341.61,930.48a8.43,8.43,0,0,1-3.47-.66,5.13,5.13,0,0,1-2.26-1.83,4.75,4.75,0,0,1-.78-2.7,4.94,4.94,0,0,1,.66-2.52,4.69,4.69,0,0,1,2.17-1.83,9.89,9.89,0,0,1,4.05-.7h6.14V922h-6.07a5.31,5.31,0,0,0-3.57.91,3,3,0,0,0-1,2.28,2.91,2.91,0,0,0,1.18,2.43,5.33,5.33,0,0,0,3.32.92,6.43,6.43,0,0,0,3.51-.93,5.34,5.34,0,0,0,2.15-2.7l.54,1.66a5.62,5.62,0,0,1-2.35,2.82A7.84,7.84,0,0,1,341.61,930.48Zm6.13-.17v-3.93l-.1-.65v-6.57a4.6,4.6,0,0,0-1.27-3.49,5.29,5.29,0,0,0-3.78-1.22,9.21,9.21,0,0,0-3.28.58,8.44,8.44,0,0,0-2.65,1.52l-1.08-1.8a9.6,9.6,0,0,1,3.25-1.77,12.64,12.64,0,0,1,4-.63,7.68,7.68,0,0,1,5.34,1.71,6.71,6.71,0,0,1,1.88,5.2v11Z"/><path class="cls-7" d="M353.81,914.52v-2h11v2Zm8.4,16a4.73,4.73,0,0,1-5.22-5.19v-16.7h2.41v16.57a3.32,3.32,0,0,0,.8,2.4,3,3,0,0,0,2.28.85,4,4,0,0,0,2.65-.91l.84,1.72a4.33,4.33,0,0,1-1.71.95A6.79,6.79,0,0,1,362.21,930.48Z"/><path class="cls-7" d="M377.26,930.48a9.84,9.84,0,0,1-4.88-1.17,8.49,8.49,0,0,1-3.29-3.22,9.21,9.21,0,0,1-1.19-4.69,9.4,9.4,0,0,1,1.14-4.68,8.27,8.27,0,0,1,3.12-3.2,8.57,8.57,0,0,1,4.45-1.17,8.77,8.77,0,0,1,4.46,1.13,8,8,0,0,1,3.06,3.19,9.67,9.67,0,0,1,1.12,4.73c0,.11,0,.23,0,.35a2.55,2.55,0,0,0,0,.39H369.73v-1.79h14.2l-.95.71a6.92,6.92,0,0,0-.83-3.44,6.09,6.09,0,0,0-2.25-2.36,6.37,6.37,0,0,0-3.29-.84,6.49,6.49,0,0,0-3.29.84,6,6,0,0,0-2.27,2.37,7.35,7.35,0,0,0-.81,3.5v.37a7,7,0,0,0,.9,3.57,6.27,6.27,0,0,0,2.51,2.41,7.71,7.71,0,0,0,3.67.86,8,8,0,0,0,3-.57,6.35,6.35,0,0,0,2.42-1.77l1.35,1.56a7.68,7.68,0,0,1-3,2.17A10,10,0,0,1,377.26,930.48Z"/><path class="cls-7" d="M397.25,930.48a9.09,9.09,0,0,1-4.56-1.15,8.36,8.36,0,0,1-3.17-3.21,10.32,10.32,0,0,1,0-9.47,8.32,8.32,0,0,1,3.17-3.17,9.18,9.18,0,0,1,4.56-1.13,8.29,8.29,0,0,1,4.18,1,7.6,7.6,0,0,1,2.95,3.07,10.18,10.18,0,0,1,1.1,4.93,10.35,10.35,0,0,1-1.08,4.91,7.7,7.7,0,0,1-2.93,3.1A8.32,8.32,0,0,1,397.25,930.48Zm.17-2.14a6.76,6.76,0,0,0,3.4-.86,6.12,6.12,0,0,0,2.37-2.44,8.09,8.09,0,0,0,0-7.3,6.16,6.16,0,0,0-2.37-2.43,6.76,6.76,0,0,0-3.4-.86,6.64,6.64,0,0,0-3.36.86,6.43,6.43,0,0,0-2.37,2.43,8,8,0,0,0,0,7.3,6.39,6.39,0,0,0,2.37,2.44A6.64,6.64,0,0,0,397.42,928.34Zm6.71,2V925l.23-3.59-.34-3.59v-12.6h2.41v25.14Z"/><path class="cls-7" d="M422.52,930.31V906.59h10.24a10.32,10.32,0,0,1,6.15,1.59,5.27,5.27,0,0,1,2.18,4.51,5.63,5.63,0,0,1-.9,3.25,5.54,5.54,0,0,1-2.44,2,8.28,8.28,0,0,1-3.37.68l.58-.82a10,10,0,0,1,3.91.7,5.55,5.55,0,0,1,2.56,2.07,6,6,0,0,1,.92,3.4,5.51,5.51,0,0,1-2.22,4.68c-1.48,1.1-3.71,1.66-6.7,1.66Zm2.51-2.07h8.37a8.88,8.88,0,0,0,4.78-1.07,4.28,4.28,0,0,0,0-6.77,8.88,8.88,0,0,0-4.78-1.07h-8.64v-2.07h7.83a7.76,7.76,0,0,0,4.42-1.08,4.11,4.11,0,0,0,0-6.46,7.85,7.85,0,0,0-4.42-1.06H425Z"/><path class="cls-7" d="M447.7,937.05a6.82,6.82,0,0,1-2.39-.41,5,5,0,0,1-1.95-1.22l1.12-1.79a5.16,5.16,0,0,0,1.48,1,4.24,4.24,0,0,0,1.77.35,3.27,3.27,0,0,0,2-.66,6.15,6.15,0,0,0,1.65-2.32l1.15-2.61.27-.37,7.32-16.5h2.37l-8.91,19.92a10.73,10.73,0,0,1-1.64,2.75,5.42,5.42,0,0,1-1.95,1.44A6.25,6.25,0,0,1,447.7,937.05Zm4.74-6.23-8.2-18.3h2.51L454,928.85Z"/><path class="cls-7" d="M475.32,930.31V906.59h8.87a12.79,12.79,0,0,1,5.19,1,7.46,7.46,0,0,1,3.33,2.78,7.92,7.92,0,0,1,1.17,4.39,7.8,7.8,0,0,1-1.17,4.32,7.39,7.39,0,0,1-3.33,2.78,12.78,12.78,0,0,1-5.19,1H476.7l1.12-1.16v8.68Zm2.5-8.47-1.12-1.19h7.43a8.16,8.16,0,0,0,5.4-1.56,6.12,6.12,0,0,0,0-8.77,8.16,8.16,0,0,0-5.4-1.56H476.7l1.12-1.19Zm13.69,8.47-6.1-8.61h2.71l6.14,8.61Z"/><path class="cls-7" d="M506.56,930.48a9.18,9.18,0,0,1-4.65-1.17,8.61,8.61,0,0,1-3.21-3.24,9.84,9.84,0,0,1,0-9.38,8.55,8.55,0,0,1,3.21-3.19,10,10,0,0,1,9.34,0,8.55,8.55,0,0,1,3.22,3.18,9.21,9.21,0,0,1,1.17,4.7,9.3,9.3,0,0,1-1.17,4.69,8.42,8.42,0,0,1-3.24,3.22A9.31,9.31,0,0,1,506.56,930.48Zm0-2.14a6.79,6.79,0,0,0,3.42-.86,6.2,6.2,0,0,0,2.35-2.44,8.09,8.09,0,0,0,0-7.3,6.24,6.24,0,0,0-2.35-2.43,7.11,7.11,0,0,0-6.78,0,6.43,6.43,0,0,0-2.37,2.43,8,8,0,0,0,0,7.3,6.37,6.37,0,0,0,2.36,2.44A6.57,6.57,0,0,0,506.56,928.34Z"/><path class="cls-7" d="M524.62,930.31l-7.9-17.79h2.51l7.25,16.5h-1.19l7.36-16.5H535l-7.93,17.79Z"/><path class="cls-7" d="M539.63,908.59a1.71,1.71,0,0,1-1.26-.51,1.66,1.66,0,0,1-.5-1.22,1.59,1.59,0,0,1,.5-1.2,1.73,1.73,0,0,1,1.26-.49,1.75,1.75,0,0,1,1.25.47,1.56,1.56,0,0,1,.51,1.19,1.73,1.73,0,0,1-.49,1.25A1.69,1.69,0,0,1,539.63,908.59Zm-1.22,21.72V912.52h2.4v17.79Z"/><path class="cls-7" d="M556.6,912.35a8.43,8.43,0,0,1,3.82.83A6,6,0,0,1,563,915.7a8.82,8.82,0,0,1,.93,4.27v10.34h-2.4v-10.1a5.84,5.84,0,0,0-1.41-4.25,5.27,5.27,0,0,0-4-1.44,6.81,6.81,0,0,0-3.3.76,5.23,5.23,0,0,0-2.17,2.2,7.33,7.33,0,0,0-.76,3.48v9.35h-2.41V912.52h2.31v4.88l-.38-.92a6.52,6.52,0,0,1,2.71-3A8.65,8.65,0,0,1,556.6,912.35Z"/><path class="cls-7" d="M577.68,930.48a9.11,9.11,0,0,1-4.64-1.17,8.56,8.56,0,0,1-3.22-3.24,9.84,9.84,0,0,1,0-9.38A8.5,8.5,0,0,1,573,913.5a9.2,9.2,0,0,1,4.64-1.15,9.3,9.3,0,0,1,4.69,1.17,8.55,8.55,0,0,1,3.22,3.18,9.21,9.21,0,0,1,1.17,4.7,9.3,9.3,0,0,1-1.17,4.69,8.42,8.42,0,0,1-3.24,3.22A9.28,9.28,0,0,1,577.68,930.48Zm0-2.14a6.73,6.73,0,0,0,3.42-.86,6.23,6.23,0,0,0,2.36-2.44,8.18,8.18,0,0,0,0-7.3,6.27,6.27,0,0,0-2.36-2.43,7.11,7.11,0,0,0-6.78,0,6.43,6.43,0,0,0-2.37,2.43,8,8,0,0,0,0,7.3,6.37,6.37,0,0,0,2.36,2.44A6.57,6.57,0,0,0,577.68,928.34Z"/><path class="cls-7" d="M601.06,930.31V906.59h8.88a12.71,12.71,0,0,1,5.18,1,7.48,7.48,0,0,1,3.34,2.78,7.92,7.92,0,0,1,1.17,4.39,7.8,7.8,0,0,1-1.17,4.32,7.42,7.42,0,0,1-3.34,2.78,12.7,12.7,0,0,1-5.18,1h-7.49l1.12-1.16v8.68Zm2.51-8.47-1.12-1.19h7.42a8.16,8.16,0,0,0,5.4-1.56,6.12,6.12,0,0,0,0-8.77,8.16,8.16,0,0,0-5.4-1.56h-7.42l1.12-1.19Zm13.69,8.47-6.1-8.61h2.71l6.13,8.61Z"/><path class="cls-7" d="M629.89,930.48a8.43,8.43,0,0,1-3.47-.66,5.16,5.16,0,0,1-2.25-1.83,4.75,4.75,0,0,1-.78-2.7,4.94,4.94,0,0,1,.66-2.52,4.59,4.59,0,0,1,2.17-1.83,9.82,9.82,0,0,1,4-.7h6.13V922h-6.07a5.34,5.34,0,0,0-3.57.91,3,3,0,0,0-1,2.28,2.92,2.92,0,0,0,1.19,2.43,5.31,5.31,0,0,0,3.32.92,6.42,6.42,0,0,0,3.5-.93,5.36,5.36,0,0,0,2.16-2.7l.54,1.66a5.64,5.64,0,0,1-2.36,2.82A7.81,7.81,0,0,1,629.89,930.48Zm6.14-.17v-3.93l-.1-.65v-6.57a4.64,4.64,0,0,0-1.27-3.49,5.29,5.29,0,0,0-3.78-1.22,9.3,9.3,0,0,0-3.29.58,8.28,8.28,0,0,0-2.64,1.52l-1.09-1.8a9.65,9.65,0,0,1,3.26-1.77,12.53,12.53,0,0,1,4-.63,7.65,7.65,0,0,1,5.34,1.71,6.71,6.71,0,0,1,1.88,5.2v11Z"/><path class="cls-7" d="M667.1,912.35a8.22,8.22,0,0,1,3.78.83,5.75,5.75,0,0,1,2.5,2.52,9.06,9.06,0,0,1,.9,4.27v10.34h-2.4v-10.1a6.05,6.05,0,0,0-1.34-4.25,4.9,4.9,0,0,0-3.78-1.44,6.28,6.28,0,0,0-3.17.76,5.1,5.1,0,0,0-2.06,2.2,7.58,7.58,0,0,0-.73,3.48v9.35h-2.41v-10.1A6,6,0,0,0,657,916a5,5,0,0,0-3.8-1.44,6.28,6.28,0,0,0-3.15.76,5.09,5.09,0,0,0-2.08,2.2,7.58,7.58,0,0,0-.73,3.48v9.35h-2.41V912.52h2.31v4.81l-.38-.85a6.35,6.35,0,0,1,2.63-3,8.14,8.14,0,0,1,4.28-1.1,7.44,7.44,0,0,1,4.44,1.3,6.16,6.16,0,0,1,2.38,3.92l-.95-.38a7,7,0,0,1,2.76-3.5A8.32,8.32,0,0,1,667.1,912.35Z"/><path class="cls-7" d="M685.84,930.48a8.47,8.47,0,0,1-3.48-.66,5.16,5.16,0,0,1-2.25-1.83,4.75,4.75,0,0,1-.78-2.7,4.94,4.94,0,0,1,.66-2.52,4.64,4.64,0,0,1,2.17-1.83,9.89,9.89,0,0,1,4.05-.7h6.13V922h-6.06a5.35,5.35,0,0,0-3.58.91,3,3,0,0,0-1,2.28,2.92,2.92,0,0,0,1.19,2.43,5.33,5.33,0,0,0,3.32.92,6.45,6.45,0,0,0,3.51-.93,5.34,5.34,0,0,0,2.15-2.7l.54,1.66a5.67,5.67,0,0,1-2.35,2.82A7.84,7.84,0,0,1,685.84,930.48Zm6.13-.17v-3.93l-.1-.65v-6.57a4.64,4.64,0,0,0-1.27-3.49,5.29,5.29,0,0,0-3.78-1.22,9.3,9.3,0,0,0-3.29.58,8.28,8.28,0,0,0-2.64,1.52l-1.08-1.8a9.51,9.51,0,0,1,3.25-1.77,12.6,12.6,0,0,1,4-.63,7.64,7.64,0,0,1,5.33,1.71,6.67,6.67,0,0,1,1.88,5.2v11Z"/><path class="cls-7" d="M707.9,930.48a9.09,9.09,0,0,1-4.56-1.15,8.29,8.29,0,0,1-3.17-3.21,10.32,10.32,0,0,1,0-9.47,8.25,8.25,0,0,1,3.17-3.17,9.18,9.18,0,0,1,4.56-1.13,8.32,8.32,0,0,1,4.18,1,7.67,7.67,0,0,1,2.95,3.07,11.6,11.6,0,0,1,0,9.84,7.63,7.63,0,0,1-2.93,3.1A8.26,8.26,0,0,1,707.9,930.48Zm.16-2.14a6.8,6.8,0,0,0,3.41-.86,6.12,6.12,0,0,0,2.37-2.44,8.09,8.09,0,0,0,0-7.3,6.16,6.16,0,0,0-2.37-2.43,6.8,6.8,0,0,0-3.41-.86,6.6,6.6,0,0,0-3.35.86,6.43,6.43,0,0,0-2.37,2.43,8,8,0,0,0,0,7.3,6.39,6.39,0,0,0,2.37,2.44A6.6,6.6,0,0,0,708.06,928.34Zm6.71,2V925l.24-3.59-.34-3.59v-12.6h2.41v25.14Z"/><path class="cls-7" d="M732.87,912.35a8.41,8.41,0,0,1,3.81.83,6,6,0,0,1,2.58,2.52,8.82,8.82,0,0,1,.93,4.27v10.34h-2.41v-10.1a5.88,5.88,0,0,0-1.4-4.25,5.28,5.28,0,0,0-4-1.44,6.83,6.83,0,0,0-3.31.76,5.21,5.21,0,0,0-2.16,2.2,7.33,7.33,0,0,0-.77,3.48v9.35h-2.4V905.17h2.4V917.4l-.47-.92a6.47,6.47,0,0,1,2.71-3A8.6,8.6,0,0,1,732.87,912.35Z"/><path class="cls-7" d="M751.71,930.48a8.47,8.47,0,0,1-3.48-.66A5.16,5.16,0,0,1,746,928a4.75,4.75,0,0,1-.78-2.7,4.94,4.94,0,0,1,.66-2.52,4.64,4.64,0,0,1,2.17-1.83,9.89,9.89,0,0,1,4.05-.7h6.13V922h-6.06a5.35,5.35,0,0,0-3.58.91,3,3,0,0,0-1,2.28,2.92,2.92,0,0,0,1.19,2.43,5.33,5.33,0,0,0,3.32.92,6.45,6.45,0,0,0,3.51-.93,5.34,5.34,0,0,0,2.15-2.7l.54,1.66a5.67,5.67,0,0,1-2.35,2.82A7.84,7.84,0,0,1,751.71,930.48Zm6.13-.17v-3.93l-.1-.65v-6.57a4.64,4.64,0,0,0-1.27-3.49,5.29,5.29,0,0,0-3.78-1.22,9.3,9.3,0,0,0-3.29.58,8.28,8.28,0,0,0-2.64,1.52l-1.08-1.8a9.51,9.51,0,0,1,3.25-1.77,12.6,12.6,0,0,1,4-.63,7.64,7.64,0,0,1,5.33,1.71,6.67,6.67,0,0,1,1.88,5.2v11Z"/><path class="cls-7" d="M775.77,912.35a8.41,8.41,0,0,1,3.81.83,6,6,0,0,1,2.57,2.52,8.82,8.82,0,0,1,.93,4.27v10.34h-2.4v-10.1a5.84,5.84,0,0,0-1.41-4.25,5.27,5.27,0,0,0-3.95-1.44,6.81,6.81,0,0,0-3.3.76,5.23,5.23,0,0,0-2.17,2.2,7.33,7.33,0,0,0-.76,3.48v9.35h-2.41V912.52H769v4.88l-.37-.92a6.42,6.42,0,0,1,2.71-3A8.6,8.6,0,0,1,775.77,912.35Z"/><path class="cls-7" d="M790.81,908.59a1.69,1.69,0,0,1-1.25-.51,1.67,1.67,0,0,1-.51-1.22,1.59,1.59,0,0,1,.51-1.2,1.71,1.71,0,0,1,1.25-.49,1.74,1.74,0,0,1,1.25.47,1.56,1.56,0,0,1,.51,1.19,1.73,1.73,0,0,1-.49,1.25A1.69,1.69,0,0,1,790.81,908.59Zm-1.22,21.72V912.52H792v17.79Z"/></svg>