<svg id="Layer_1" data-name="Layer 1" xmlns="http://www.w3.org/2000/svg" xmlns:xlink="http://www.w3.org/1999/xlink" viewBox="0 0 1080 1080"><defs><style>.cls-1{fill:none;}.cls-2{fill:#fff;}.cls-3{clip-path:url(#clip-path);}.cls-4{fill:#5bb318;}.cls-5{fill:#2b7a0b;}.cls-6{fill:#eae509;}</style><clipPath id="clip-path"><path class="cls-1" d="M528.63,744.6q-57.54,0-106.92-19.18t-85.6-54A245.18,245.18,0,0,1,280,590.08q-19.89-46.51-19.89-101.23,0-55.41,19.89-101.59a246.28,246.28,0,0,1,56.13-81q36.22-34.8,85.25-54t107.27-19.19q57.55,0,106.57,18.83t84.89,53.64a248.19,248.19,0,0,1,55.77,81.34q19.89,46.55,19.89,102T775.86,590.79a247.92,247.92,0,0,1-55.77,81.35Q684.21,707,635.2,725.78T528.63,744.6Zm0-81q37.65,0,69.27-12.79a164.78,164.78,0,0,0,92-92.35q12.78-32,12.79-69.62,0-38.37-12.79-70a165.66,165.66,0,0,0-92-92q-31.62-12.78-69.27-12.79t-70,12.79a159.87,159.87,0,0,0-55.76,36.59A177.36,177.36,0,0,0,366,418.87q-13.51,31.62-13.5,70,0,37.67,13.5,69.62a176.14,176.14,0,0,0,36.94,55.77,159.57,159.57,0,0,0,55.76,36.58Q491,663.62,528.63,663.61Zm162.69,183.3a199.17,199.17,0,0,1-51.15-6.4,208.52,208.52,0,0,1-48.31-19.89q-24.17-13.5-49.73-36.23T486,729l98-24.86q19.88,26.29,38,41.91t35.53,22.74a90.73,90.73,0,0,0,34.45,7.1q49.72,0,86-40.49l41.92,51.86Q770.89,846.9,691.32,846.91Z"/></clipPath></defs><rect class="cls-2" x="5" y="5" width="1070" height="1070" rx="260.94"/><g class="cls-3"><circle class="cls-4" cx="819.91" cy="388.47" r="356.13"/><circle class="cls-5" cx="560.84" cy="790.22" r="356.13"/><circle class="cls-6" cx="312.92" cy="338.5" r="356.13"/></g></svg>