<svg id="Layer_1" data-name="Layer 1" xmlns="http://www.w3.org/2000/svg" xmlns:xlink="http://www.w3.org/1999/xlink" viewBox="0 0 2014.17 685.15"><defs><style>.cls-1{fill:none;}.cls-2{fill:#333;}.cls-3{clip-path:url(#clip-path);}.cls-4{fill:#5bb318;}.cls-5{fill:#2b7a0b;}.cls-6{fill:#eae509;}.cls-7{fill:#4d4d4d;}</style><clipPath id="clip-path"><path class="cls-1" d="M804.08,499.06q-33.89,0-63-11.3A150.47,150.47,0,0,1,690.68,456,144.6,144.6,0,0,1,657.62,408q-11.72-27.41-11.71-59.63,0-32.64,11.71-59.84a145.24,145.24,0,0,1,33.06-47.7,151,151,0,0,1,50.22-31.8q28.88-11.3,63.18-11.3,33.9,0,62.77,11.09a145.25,145.25,0,0,1,82.86,79.5q11.7,27.42,11.71,60.05t-11.71,60A145.31,145.31,0,0,1,866.85,488Q838,499.06,804.08,499.06Zm0-47.71a107.81,107.81,0,0,0,40.8-7.53,97.06,97.06,0,0,0,54.19-54.4,109.43,109.43,0,0,0,7.53-41q0-22.59-7.53-41.22A97.54,97.54,0,0,0,844.88,253a107.81,107.81,0,0,0-40.8-7.53A111,111,0,0,0,762.87,253,94.17,94.17,0,0,0,730,274.55a104.48,104.48,0,0,0-21.76,32.64q-7.95,18.63-8,41.22A103.8,103.8,0,0,0,730,422.27a93.9,93.9,0,0,0,32.85,21.55A111,111,0,0,0,804.08,451.35Zm95.83,108a117.27,117.27,0,0,1-30.13-3.76,122.56,122.56,0,0,1-28.45-11.72A168.26,168.26,0,0,1,812,522.49Q797,509.09,779,489.85l57.74-14.65q11.71,15.49,22.39,24.69A77.06,77.06,0,0,0,880,513.28a53.44,53.44,0,0,0,20.3,4.19q29.28,0,50.63-23.85l24.69,30.54Q946.78,559.32,899.91,559.31Z"/></clipPath></defs><path class="cls-2" d="M127.46,520.9,246,252.3h74.82l119,268.6h-79L267.9,289.52h29.93L205,520.9Zm64.85-52.57,19.57-55.64H343.11l19.57,55.64Z"/><path class="cls-2" d="M457.84,520.9V236.19h72.9V520.9Z"/><g class="cls-3"><circle class="cls-4" cx="975.65" cy="289.29" r="209.77"/><circle class="cls-5" cx="823.05" cy="525.93" r="209.77"/><circle class="cls-6" cx="677.02" cy="259.85" r="209.77"/></g><path class="cls-2" d="M1089.74,484.45q-25.32,0-45.47-10t-31.46-31.27q-11.32-21.3-11.32-54.3V272.64h72.91V377q0,24.17,9,34.72t25.52,10.55a40.2,40.2,0,0,0,19.76-5q9-5,14-15.93t5-27.82V272.64h72.91V481h-69.07V422.28l13.43,16.5q-11.13,23-31.27,34.35A88.26,88.26,0,0,1,1089.74,484.45Z"/><path class="cls-2" d="M1267.78,484.45V276.09h69.83v61l-10.74-17.27q9.59-23.4,30.12-35.3t50.08-11.89v66q-5-.76-8.83-1t-7.67-.2q-22.26,0-36.07,12.09t-13.82,39.33v95.55Z"/><path class="cls-2" d="M1490,486.17q-24.56,0-42-8.44t-26.47-23a60,60,0,0,1-9-32.23q0-19.19,9.78-33.39t30.32-21.68q20.52-7.47,52.37-7.48H1554V398.3h-39.14q-17.66,0-24.75,5.38T1483,419a18.71,18.71,0,0,0,7.29,15.16q7.29,6,20,5.95a41.58,41.58,0,0,0,22.06-5.95q9.78-5.94,14-18.23l10,26.86q-5.76,21.49-22.45,32.43T1490,486.17Zm61.39-3.45V444l-5-9.59V363q0-17.26-10.56-26.67t-33.57-9.4a99.64,99.64,0,0,0-30.51,5,95.07,95.07,0,0,0-26.28,12.66l-24.17-49.11q17.64-11.52,42.4-18a193.14,193.14,0,0,1,49.3-6.52q50.65,0,78.47,23.41t27.82,72.9v115.5Z"/><path class="cls-2" d="M1800.75,272.64q24.18,0,43.75,10t30.88,30.32q11.32,20.34,11.32,52.57v119h-73.29V377.39q0-22.25-9-32.42T1780,334.8a44.52,44.52,0,0,0-21.49,5.18,35.51,35.51,0,0,0-15,15.92q-5.38,10.75-5.37,28.4V484.45H1665.3V276.09h69.84v59.48l-13.82-17.27q11.9-22.24,32.62-34T1800.75,272.64Z"/><path class="cls-7" d="M986.22,176.6a23.24,23.24,0,0,1-8.66-1.57,20.26,20.26,0,0,1-11.42-11.12,22.56,22.56,0,0,1,0-16.84,20.25,20.25,0,0,1,4.57-6.71,20.72,20.72,0,0,1,6.91-4.42,23.42,23.42,0,0,1,8.65-1.57,23.85,23.85,0,0,1,8.49,1.51,17.12,17.12,0,0,1,6.7,4.54l-2.79,2.79a15.47,15.47,0,0,0-5.63-3.77,18.81,18.81,0,0,0-6.65-1.15,18.61,18.61,0,0,0-6.94,1.27,16.6,16.6,0,0,0-5.57,3.62,17,17,0,0,0-3.71,5.46,17.33,17.33,0,0,0,3.71,19.15,16.45,16.45,0,0,0,5.57,3.62,18.62,18.62,0,0,0,6.94,1.28A18.39,18.39,0,0,0,993,171.5a15.78,15.78,0,0,0,5.63-3.79l2.79,2.78a17.29,17.29,0,0,1-6.7,4.57A23.38,23.38,0,0,1,986.22,176.6Z"/><path class="cls-7" d="M1009.94,176.25V145.11h4v8.48l-.41-1.48a10.2,10.2,0,0,1,4.39-5.43,14.46,14.46,0,0,1,7.65-1.87v4.09l-.48,0a3.59,3.59,0,0,0-.47,0,10,10,0,0,0-7.71,3c-1.86,2-2.79,4.83-2.79,8.51v15.9Z"/><path class="cls-7" d="M1046.18,176.54a17.32,17.32,0,0,1-8.54-2,14.84,14.84,0,0,1-5.75-5.64,16,16,0,0,1-2.08-8.21,16.47,16.47,0,0,1,2-8.19,14.66,14.66,0,0,1,5.45-5.6,16.07,16.07,0,0,1,15.6-.06,14,14,0,0,1,5.37,5.57,17,17,0,0,1,2,8.28c0,.2,0,.4,0,.62s0,.44,0,.68H1033v-3.14h24.85l-1.66,1.24a12.27,12.27,0,0,0-1.45-6,10.77,10.77,0,0,0-3.94-4.12,11,11,0,0,0-5.76-1.48,11.22,11.22,0,0,0-5.75,1.48,10.24,10.24,0,0,0-4,4.15,12.79,12.79,0,0,0-1.43,6.11v.66a12.26,12.26,0,0,0,1.57,6.25,10.92,10.92,0,0,0,4.39,4.21,13.4,13.4,0,0,0,6.44,1.52,13.91,13.91,0,0,0,5.31-1,11,11,0,0,0,4.24-3.09l2.37,2.73a13.32,13.32,0,0,1-5.19,3.8A17.56,17.56,0,0,1,1046.18,176.54Z"/><path class="cls-7" d="M1076.67,176.54a14.76,14.76,0,0,1-6.08-1.15,9,9,0,0,1-3.95-3.21,8.27,8.27,0,0,1-1.36-4.71,8.56,8.56,0,0,1,1.16-4.42,8.14,8.14,0,0,1,3.79-3.2,17.18,17.18,0,0,1,7.09-1.22h10.73v3.14h-10.61c-3,0-5.09.54-6.26,1.61a5.4,5.4,0,0,0,.33,8.24,9.29,9.29,0,0,0,5.81,1.6,11.23,11.23,0,0,0,6.14-1.63,9.38,9.38,0,0,0,3.76-4.71l1,2.9a9.82,9.82,0,0,1-4.12,4.92A13.65,13.65,0,0,1,1076.67,176.54Zm10.73-.29v-6.88l-.18-1.13V156.73a8.09,8.09,0,0,0-2.22-6.11c-1.48-1.42-3.69-2.13-6.61-2.13a16.32,16.32,0,0,0-5.76,1,14.46,14.46,0,0,0-4.62,2.67l-1.9-3.15a16.88,16.88,0,0,1,5.69-3.11,22.25,22.25,0,0,1,7-1.1q6,0,9.34,3t3.3,9.1v19.34Z"/><path class="cls-7" d="M1098,148.61v-3.5h19.28v3.5Zm14.71,27.93q-4.39,0-6.76-2.37a9,9,0,0,1-2.38-6.7V138.23h4.22v29a5.91,5.91,0,0,0,1.39,4.21,5.22,5.22,0,0,0,4,1.49,6.8,6.8,0,0,0,4.63-1.61l1.48,3a7.87,7.87,0,0,1-3,1.66A12.15,12.15,0,0,1,1112.73,176.54Z"/><path class="cls-7" d="M1139.06,176.54a17.32,17.32,0,0,1-8.54-2,14.84,14.84,0,0,1-5.75-5.64,16,16,0,0,1-2.08-8.21,16.47,16.47,0,0,1,2-8.19,14.61,14.61,0,0,1,5.46-5.6,15,15,0,0,1,7.8-2.05,15.19,15.19,0,0,1,7.8,2,14.09,14.09,0,0,1,5.36,5.57,17,17,0,0,1,2,8.28c0,.2,0,.4,0,.62s0,.44,0,.68h-27.1v-3.14h24.85l-1.66,1.24a12.28,12.28,0,0,0-1.46-6,10.77,10.77,0,0,0-3.94-4.12,11,11,0,0,0-5.75-1.48,11.23,11.23,0,0,0-5.76,1.48,10.31,10.31,0,0,0-4,4.15,12.78,12.78,0,0,0-1.42,6.11v.66a12.16,12.16,0,0,0,1.57,6.25,10.86,10.86,0,0,0,4.39,4.21,13.34,13.34,0,0,0,6.43,1.52,13.91,13.91,0,0,0,5.31-1,11,11,0,0,0,4.24-3.09l2.37,2.73a13.32,13.32,0,0,1-5.19,3.8A17.53,17.53,0,0,1,1139.06,176.54Z"/><path class="cls-7" d="M1174.06,176.54a15.82,15.82,0,0,1-8-2,14.66,14.66,0,0,1-5.55-5.61,18.1,18.1,0,0,1,0-16.58,14.41,14.41,0,0,1,5.55-5.54,15.91,15.91,0,0,1,8-2,14.47,14.47,0,0,1,7.32,1.84,13.37,13.37,0,0,1,5.16,5.37,17.73,17.73,0,0,1,1.93,8.63,18,18,0,0,1-1.9,8.6,13.24,13.24,0,0,1-5.13,5.42A14.43,14.43,0,0,1,1174.06,176.54Zm.29-3.73a11.74,11.74,0,0,0,6-1.52,10.75,10.75,0,0,0,4.16-4.27,14.28,14.28,0,0,0,0-12.78,10.87,10.87,0,0,0-4.16-4.24,11.74,11.74,0,0,0-6-1.51,11.48,11.48,0,0,0-5.87,1.51,11.13,11.13,0,0,0-4.15,4.24,14,14,0,0,0,0,12.78,11,11,0,0,0,4.15,4.27A11.49,11.49,0,0,0,1174.35,172.81Zm11.75,3.44v-9.37l.41-6.29-.59-6.29V132.24h4.21v44Z"/><path class="cls-7" d="M1218.3,176.25V134.73h17.92q6.93,0,10.76,2.79a9.17,9.17,0,0,1,3.83,7.88,9.89,9.89,0,0,1-1.58,5.7,9.77,9.77,0,0,1-4.27,3.5,14.49,14.49,0,0,1-5.9,1.18l1-1.42a17.54,17.54,0,0,1,6.85,1.22,9.82,9.82,0,0,1,4.48,3.61,10.53,10.53,0,0,1,1.6,6,9.63,9.63,0,0,1-3.88,8.18q-3.88,2.91-11.72,2.91Zm4.39-3.62h14.65q5.46,0,8.37-1.87a6.58,6.58,0,0,0,2.9-6,6.51,6.51,0,0,0-2.9-5.9q-2.91-1.87-8.37-1.87h-15.12v-3.62h13.7q5,0,7.74-1.9a7.16,7.16,0,0,0,0-11.3q-2.76-1.86-7.74-1.86h-13.23Z"/><path class="cls-7" d="M1262.37,188.05a12.44,12.44,0,0,1-4.18-.71,9.19,9.19,0,0,1-3.41-2.14l2-3.14a9.28,9.28,0,0,0,2.58,1.75,7.61,7.61,0,0,0,3.11.62,5.75,5.75,0,0,0,3.59-1.15,11,11,0,0,0,2.88-4.07l2-4.56.48-.66,12.81-28.88h4.15L1272.75,180a18.29,18.29,0,0,1-2.87,4.81,9.35,9.35,0,0,1-3.41,2.52A11,11,0,0,1,1262.37,188.05Zm8.31-10.91-14.36-32h4.39l12.69,28.59Z"/><path class="cls-7" d="M1310.71,176.25V134.73h15.54a22.17,22.17,0,0,1,9.08,1.69,13.14,13.14,0,0,1,5.84,4.86,13.92,13.92,0,0,1,2,7.68,13.71,13.71,0,0,1-2,7.57,13.14,13.14,0,0,1-5.84,4.86,22.17,22.17,0,0,1-9.08,1.69h-13.11l2-2v15.19Zm4.39-14.83-2-2.08h13q6.22,0,9.46-2.73a9.43,9.43,0,0,0,3.24-7.65,9.53,9.53,0,0,0-3.24-7.71q-3.22-2.73-9.46-2.73h-13l2-2.07Zm24,14.83-10.67-15.07h4.74l10.74,15.07Z"/><path class="cls-7" d="M1365.4,176.54a16,16,0,0,1-8.13-2,15.1,15.1,0,0,1-5.63-5.67,17.26,17.26,0,0,1,0-16.43,14.9,14.9,0,0,1,5.63-5.57,17.42,17.42,0,0,1,16.34,0,15,15,0,0,1,5.64,5.57,16.14,16.14,0,0,1,2,8.22,16.32,16.32,0,0,1-2,8.21,14.84,14.84,0,0,1-5.67,5.64A16.36,16.36,0,0,1,1365.4,176.54Zm0-3.73a11.72,11.72,0,0,0,6-1.52,10.79,10.79,0,0,0,4.12-4.27,14.28,14.28,0,0,0,0-12.78,10.91,10.91,0,0,0-4.12-4.24,12.42,12.42,0,0,0-11.87,0,11.13,11.13,0,0,0-4.15,4.24,14,14,0,0,0,0,12.78,11.07,11.07,0,0,0,4.12,4.27A11.45,11.45,0,0,0,1365.4,172.81Z"/><path class="cls-7" d="M1397,176.25l-13.82-31.14h4.39L1400.27,174h-2.07l12.87-28.88h4.15l-13.88,31.14Z"/><path class="cls-7" d="M1423.28,138.23a3,3,0,0,1-2.19-.89,3,3,0,0,1-.89-2.14,2.81,2.81,0,0,1,.89-2.1,3,3,0,0,1,2.19-.86,3.07,3.07,0,0,1,2.2.83,2.72,2.72,0,0,1,.89,2.07,3.07,3.07,0,0,1-.86,2.2A3,3,0,0,1,1423.28,138.23Zm-2.13,38V145.11h4.21v31.14Z"/><path class="cls-7" d="M1453,144.81a14.69,14.69,0,0,1,6.67,1.45,10.5,10.5,0,0,1,4.51,4.42,15.37,15.37,0,0,1,1.63,7.48v18.09h-4.21V158.57q0-4.92-2.46-7.44a9.22,9.22,0,0,0-6.91-2.52,11.92,11.92,0,0,0-5.78,1.33,9.19,9.19,0,0,0-3.8,3.86,12.82,12.82,0,0,0-1.33,6.08v16.37h-4.21V145.11h4v8.54l-.65-1.6a11.25,11.25,0,0,1,4.74-5.31A15,15,0,0,1,1453,144.81Z"/><path class="cls-7" d="M1489.89,176.54a16,16,0,0,1-8.12-2,15.12,15.12,0,0,1-5.64-5.67,17.34,17.34,0,0,1,0-16.43,14.93,14.93,0,0,1,5.64-5.57,17.42,17.42,0,0,1,16.34,0,14.91,14.91,0,0,1,5.63,5.57,16,16,0,0,1,2,8.22,16.22,16.22,0,0,1-2,8.21,14.75,14.75,0,0,1-5.66,5.64A16.37,16.37,0,0,1,1489.89,176.54Zm0-3.73a11.7,11.7,0,0,0,6-1.52A10.82,10.82,0,0,0,1500,167a14.28,14.28,0,0,0,0-12.78,10.94,10.94,0,0,0-4.13-4.24,12.4,12.4,0,0,0-11.86,0,11.13,11.13,0,0,0-4.15,4.24,14,14,0,0,0,0,12.78,11.07,11.07,0,0,0,4.12,4.27A11.44,11.44,0,0,0,1489.89,172.81Z"/><path class="cls-7" d="M1530.82,176.25V134.73h15.54a22.12,22.12,0,0,1,9.07,1.69,13.09,13.09,0,0,1,5.84,4.86,13.84,13.84,0,0,1,2,7.68,13.63,13.63,0,0,1-2,7.57,13.09,13.09,0,0,1-5.84,4.86,22.12,22.12,0,0,1-9.07,1.69h-13.11l2-2v15.19Zm4.39-14.83-2-2.08h13q6.23,0,9.46-2.73a9.45,9.45,0,0,0,3.23-7.65,9.55,9.55,0,0,0-3.23-7.71q-3.24-2.73-9.46-2.73h-13l2-2.07Zm24,14.83-10.68-15.07h4.75L1564,176.25Z"/><path class="cls-7" d="M1581.29,176.54a14.79,14.79,0,0,1-6.08-1.15,9,9,0,0,1-3.94-3.21,8.27,8.27,0,0,1-1.37-4.71,8.66,8.66,0,0,1,1.16-4.42,8.16,8.16,0,0,1,3.8-3.2,17.18,17.18,0,0,1,7.09-1.22h10.73v3.14h-10.62c-3,0-5.09.54-6.25,1.61a5.41,5.41,0,0,0,.32,8.24,9.32,9.32,0,0,0,5.82,1.6,11.2,11.2,0,0,0,6.13-1.63,9.39,9.39,0,0,0,3.77-4.71l1,2.9a9.82,9.82,0,0,1-4.12,4.92A13.66,13.66,0,0,1,1581.29,176.54Zm10.74-.29v-6.88l-.18-1.13V156.73a8.09,8.09,0,0,0-2.22-6.11c-1.49-1.42-3.69-2.13-6.62-2.13a16.3,16.3,0,0,0-5.75,1,14.62,14.62,0,0,0-4.63,2.67l-1.89-3.15a16.78,16.78,0,0,1,5.69-3.11,22.21,22.21,0,0,1,7-1.1q6,0,9.34,3t3.29,9.1v19.34Z"/><path class="cls-7" d="M1646.42,144.81a14.34,14.34,0,0,1,6.61,1.45,10.24,10.24,0,0,1,4.39,4.42,15.85,15.85,0,0,1,1.57,7.48v18.09h-4.21V158.57q0-4.92-2.34-7.44a8.59,8.59,0,0,0-6.62-2.52,11,11,0,0,0-5.54,1.33,9,9,0,0,0-3.62,3.86,13.32,13.32,0,0,0-1.27,6.08v16.37h-4.21V158.57c0-3.28-.8-5.76-2.38-7.44a8.67,8.67,0,0,0-6.64-2.52,11.06,11.06,0,0,0-5.52,1.33,8.94,8.94,0,0,0-3.64,3.86,13.32,13.32,0,0,0-1.28,6.08v16.37h-4.21V145.11h4v8.42l-.65-1.48a11.07,11.07,0,0,1,4.6-5.31,14.09,14.09,0,0,1,7.5-1.93,13.07,13.07,0,0,1,7.77,2.28,10.68,10.68,0,0,1,4.15,6.85l-1.66-.65a12.33,12.33,0,0,1,4.83-6.14A14.59,14.59,0,0,1,1646.42,144.81Z"/><path class="cls-7" d="M1679.22,176.54a14.76,14.76,0,0,1-6.08-1.15,9,9,0,0,1-4-3.21,8.27,8.27,0,0,1-1.36-4.71,8.56,8.56,0,0,1,1.16-4.42,8.14,8.14,0,0,1,3.79-3.2,17.18,17.18,0,0,1,7.09-1.22h10.74v3.14H1680c-3,0-5.09.54-6.26,1.61a5.4,5.4,0,0,0,.33,8.24,9.29,9.29,0,0,0,5.81,1.6,11.23,11.23,0,0,0,6.14-1.63,9.38,9.38,0,0,0,3.76-4.71l1,2.9a9.82,9.82,0,0,1-4.12,4.92A13.65,13.65,0,0,1,1679.22,176.54Zm10.73-.29v-6.88l-.18-1.13V156.73a8.09,8.09,0,0,0-2.22-6.11c-1.48-1.42-3.69-2.13-6.61-2.13a16.32,16.32,0,0,0-5.76,1,14.46,14.46,0,0,0-4.62,2.67l-1.9-3.15a16.88,16.88,0,0,1,5.69-3.11,22.25,22.25,0,0,1,7-1.1q6.06,0,9.34,3t3.3,9.1v19.34Z"/><path class="cls-7" d="M1717.83,176.54a15.82,15.82,0,0,1-8-2,14.57,14.57,0,0,1-5.54-5.61,18,18,0,0,1,0-16.58,14.32,14.32,0,0,1,5.54-5.54,15.91,15.91,0,0,1,8-2,14.47,14.47,0,0,1,7.32,1.84,13.37,13.37,0,0,1,5.16,5.37,17.73,17.73,0,0,1,1.93,8.63,18,18,0,0,1-1.9,8.6,13.24,13.24,0,0,1-5.13,5.42A14.41,14.41,0,0,1,1717.83,176.54Zm.3-3.73a11.77,11.77,0,0,0,6-1.52,10.73,10.73,0,0,0,4.15-4.27,14.28,14.28,0,0,0,0-12.78,10.85,10.85,0,0,0-4.15-4.24,11.76,11.76,0,0,0-6-1.51,11.49,11.49,0,0,0-5.88,1.51,11.13,11.13,0,0,0-4.15,4.24,14,14,0,0,0,0,12.78,11,11,0,0,0,4.15,4.27A11.5,11.5,0,0,0,1718.13,172.81Zm11.74,3.44v-9.37l.41-6.29-.59-6.29V132.24h4.21v44Z"/><path class="cls-7" d="M1761.54,144.81a14.76,14.76,0,0,1,6.68,1.45,10.48,10.48,0,0,1,4.5,4.42,15.37,15.37,0,0,1,1.63,7.48v18.09h-4.21V158.57q0-4.92-2.46-7.44a9.21,9.21,0,0,0-6.91-2.52,12,12,0,0,0-5.78,1.33,9.19,9.19,0,0,0-3.8,3.86,12.82,12.82,0,0,0-1.33,6.08v16.37h-4.21v-44h4.21v21.41l-.83-1.6a11.3,11.3,0,0,1,4.74-5.31A15,15,0,0,1,1761.54,144.81Z"/><path class="cls-7" d="M1794.52,176.54a14.79,14.79,0,0,1-6.08-1.15,8.93,8.93,0,0,1-3.94-3.21,8.27,8.27,0,0,1-1.37-4.71,8.66,8.66,0,0,1,1.16-4.42,8.14,8.14,0,0,1,3.79-3.2,17.21,17.21,0,0,1,7.09-1.22h10.74v3.14h-10.62q-4.5,0-6.26,1.61a5.4,5.4,0,0,0,.33,8.24,9.29,9.29,0,0,0,5.81,1.6,11.23,11.23,0,0,0,6.14-1.63,9.39,9.39,0,0,0,3.77-4.71l1,2.9a9.89,9.89,0,0,1-4.13,4.92A13.6,13.6,0,0,1,1794.52,176.54Zm10.74-.29v-6.88l-.18-1.13V156.73a8.06,8.06,0,0,0-2.23-6.11q-2.22-2.13-6.61-2.13a16.26,16.26,0,0,0-5.75,1,14.62,14.62,0,0,0-4.63,2.67L1784,149a16.83,16.83,0,0,1,5.7-3.11,22.14,22.14,0,0,1,7-1.1q6.06,0,9.35,3t3.29,9.1v19.34Z"/><path class="cls-7" d="M1836.63,144.81a14.69,14.69,0,0,1,6.67,1.45,10.5,10.5,0,0,1,4.51,4.42,15.37,15.37,0,0,1,1.63,7.48v18.09h-4.21V158.57q0-4.92-2.46-7.44a9.21,9.21,0,0,0-6.91-2.52,12,12,0,0,0-5.78,1.33,9.19,9.19,0,0,0-3.8,3.86,12.82,12.82,0,0,0-1.33,6.08v16.37h-4.21V145.11h4v8.54l-.65-1.6a11.25,11.25,0,0,1,4.74-5.31A15,15,0,0,1,1836.63,144.81Z"/><path class="cls-7" d="M1863,138.23a3,3,0,0,1-2.2-.89,3,3,0,0,1-.89-2.14,2.81,2.81,0,0,1,.89-2.1,3,3,0,0,1,2.2-.86,3.05,3.05,0,0,1,2.19.83,2.72,2.72,0,0,1,.89,2.07,3.07,3.07,0,0,1-.86,2.2A3,3,0,0,1,1863,138.23Zm-2.14,38V145.11H1865v31.14Z"/></svg>